<?xml version="1.0" standalone="no"?>
<!DOCTYPE svg PUBLIC "-//W3C//DTD SVG 1.1//EN" "http://www.w3.org/Graphics/SVG/1.1/DTD/svg11.dtd" >
<svg xmlns="http://www.w3.org/2000/svg">
<metadata>
<json>
<![CDATA[
{
	"fontFamily": "iconfont",
	"description": "Font generated by IcoMoon.",
	"majorVersion": 1,
	"minorVersion": 0,
	"version": "Version 1.0",
	"fontId": "iconfont",
	"psName": "iconfont",
	"subFamily": "Regular",
	"fullName": "iconfont"
}
]]>
</json>
</metadata>
<defs>
<font id="iconfont" horiz-adv-x="1024">
<font-face units-per-em="1024" ascent="896" descent="-128" />
<missing-glyph horiz-adv-x="1024" />
<glyph unicode="&#x20;" horiz-adv-x="0" d="" />
<glyph unicode="&#xe900;" glyph-name="del" data-tags="del" d="M576.101 160.047v351.916c0 41.011 64.069 41.011 64.069 0v-351.916c-0.001-41.015-64.069-41.015-64.069 0zM383.834 160.047v351.916c0 41.011 64.099 41.011 64.099 0v-351.916c0-41.015-64.099-41.015-64.099 0zM928.572 671.934h-160.205v64.009c0 52.993-43.082 95.961-95.141 95.961h-321.429c-53.078 0-96.131-42.968-96.131-95.961v-64.009h-160.206c-41.072 0-41.072-63.954 0-63.954h833.109c41.043-0.001 41.043 63.954 0.002 63.954zM319.765 735.942c0 16.996 15.012 32.007 32.033 32.007h321.429c17.022 0 31.042-13.003 31.042-32.007v-64.009h-384.503v64.009zM736.305-63.905h-448.606c-53.049 0-96.102 42.964-96.102 95.956v479.913c0 19.004 15.012 32.006 32.033 32.006 17.025 0 32.037-13.002 32.037-32.006v-479.913c0-16.962 15.041-31.972 32.033-31.972h448.606c17.022 0 32.062 15.011 32.062 31.972v478.922c0 42.002 64.069 42.002 64.069 0v-478.923c0.001-52.992-43.054-95.955-96.131-95.955z" />
<glyph unicode="&#xe901;" glyph-name="edit" data-tags="edit" d="M777.734 24.651h-636.685v624.883h445.574l70.205 72.341h-553.805c-20.474 0-37.045-16.359-37.045-36.63v-697.275c0-20.217 16.571-36.625 37.045-36.625h709.808c20.474 0 37.036 16.405 37.036 36.625v515.974l-75.084-72.341 2.95-406.954zM716.444 714.406l131.153-131.162-375.044-373.431-131.17 131.175 375.062 373.417zM315.362 310.091l131.162-131.153-206.729-64.85 75.567 196.001zM944.455 721.105l-81.981 81.99c-13.599 13.559-36.34 12.832-50.844-1.662v0.005l-55.016-54.257 131.175-131.167 54.819 54.060c0.068 0.068 0.14 0.131 0.208 0.198 14.485 14.494 15.207 37.275 1.64 50.834z" />
<glyph unicode="&#xe902;" glyph-name="user" data-tags="user" d="M916.263-21.702c-0.127 1.305-0.275 2.598-0.413 3.898-0.040 2.804-0.367 5.545-0.955 8.183-18.42 144.756-113.053 265.712-242.411 321.38 74.76 51.214 123.824 137.21 123.824 234.665 0 157.009-127.279 284.287-284.263 284.287-157.009 0-284.293-127.279-284.293-284.287 0-97.497 49.104-183.514 123.916-234.722-127.951-55.116-221.906-174.112-241.69-316.828-1.442-4.167-2.241-8.632-2.241-13.288l0.299-3.121c-0.006-0.051-0.017-0.111-0.023-0.168h0.034l0.046-0.477c0-22.402 18.149-40.53 40.535-40.53 22.38 0 40.53 18.128 40.53 40.53l-0.046 0.477h0.73c18.885 154.796 146.743 275.948 304.522 284.425 5.845-0.362 11.736-0.564 17.674-0.564 5.948 0 11.84 0.208 17.695 0.564 157.807-8.466 285.677-129.623 304.557-284.425h0.823l0.046-0.477c0-22.402 18.144-40.53 40.529-40.53s40.53 18.128 40.53 40.53l-0.046 0.477h0.091v0.001zM511.963 343.304c-112.14 0-203.044 90.903-203.044 203.038 0 112.14 90.903 203.062 203.044 203.062 112.134 0 203.038-90.922 203.038-203.062 0-112.134-90.903-203.038-203.038-203.038v0z" />
<glyph unicode="&#xe903;" glyph-name="Distribution" data-tags="Distribution" d="M656.565 548.71v-174.671l178.579-0.129-58.347 175.033-14.27-0.453v0.222h-105.964zM710.975 428.449v65.759h28.114l22.175-65.759h-50.289zM945.562 487.406l-156.66 156.571c-5.062 5.060-11.985 7.847-19.492 7.847l-161.45-0.004v41.413c0 43.426-35.331 78.757-78.759 78.757h-377.941c-43.428 0-78.76-35.331-78.76-78.757v-515.359c0-43.426 35.332-78.757 78.76-78.757h24.701c5.1-57.707 53.706-103.108 112.716-103.108s107.616 45.401 112.717 103.108h221.217c5.1-57.707 53.706-103.108 112.717-103.108 58.918 0 107.516 45.365 112.703 103.017h24.716c43.428 0 78.76 35.331 78.76 78.757v268.659l-5.939 40.964zM288.672 50.505c-32.344 0-58.656 26.316-58.656 58.659s26.314 58.656 58.656 58.656c32.345 0 58.659-26.314 58.659-58.656 0-32.345-26.316-58.659-58.659-58.659zM735.324 50.505c-32.345 0-58.659 26.316-58.659 58.659s26.316 58.656 58.659 58.656 58.658-26.314 58.658-58.656c0-32.345-26.314-58.659-58.658-58.659zM897.089 177.874c0-13.428-10.924-24.351-24.351-24.351h-34.452c-17.781 41.436-58.306 68.801-102.963 68.801-45.467 0-86.43-27.329-104.097-68.707h-239.591c-17.959 41.972-57.648 68.707-102.962 68.707-44.673 0-85.194-27.329-102.96-68.707h-34.453c-13.428 0-24.351 10.922-24.351 24.348v515.27c0 13.377 10.924 24.257 24.351 24.257h377.941c13.428 0 24.351-10.882 24.351-24.257v-395.098c0-15.001 12.204-27.206 27.206-27.206s27.206 12.204 27.206 27.206v299.184h150.253l138.881-138.882v-280.566z" />
<glyph unicode="&#xe904;" glyph-name="Public-platform" data-tags="Public-platform" d="M678.49 531.692h32.224c-26.852 134.265-171.859 236.308-338.349 236.308-182.601-5.369-332.979-128.895-332.979-284.643 0-91.301 48.336-166.49 134.265-225.566l-32.224-102.041 118.154 59.077c42.965-10.742 75.188-16.112 118.154-16.112h32.224c-5.369 21.483-10.742 42.965-10.742 69.819-5.369 145.007 123.524 263.161 279.272 263.161zM501.258 622.993c26.852 0 42.965-16.112 42.965-42.965-5.369-21.483-21.483-37.594-42.965-37.594-26.852 0-53.705 16.112-53.705 37.594 0 26.852 26.852 42.965 53.705 42.965zM264.951 542.434c-21.483 0-48.336 16.112-48.336 37.594 0 26.852 26.852 42.965 48.336 42.965 26.852 0 42.965-16.112 42.965-42.965 0-21.483-16.112-37.594-42.965-37.594zM984.615 273.903c0 134.265-134.265 241.678-284.643 241.678-161.119 0-284.643-107.413-284.643-241.678s123.524-241.678 284.643-241.678c32.224 0 64.447 10.742 102.041 16.112l91.301-48.336-26.852 85.93c64.447 42.965 118.154 112.783 118.154 187.972zM608.671 316.867c-16.112 0-32.224 16.112-32.224 32.224s16.112 32.224 32.224 32.224c26.852 0 42.965-16.112 42.965-32.224s-16.112-32.224-42.965-32.224zM791.272 316.867c-16.112 0-32.224 16.112-32.224 32.224s16.112 32.224 32.224 32.224c26.852 0 42.965-16.112 42.965-32.224s-16.112-32.224-42.965-32.224z" />
<glyph unicode="&#xe905;" glyph-name="Settlement" data-tags="Settlement" d="M752.8-64h-560c-50.4 0-89.6 39.2-89.6 89.6v716.8c0 50.4 39.2 89.6 89.6 89.6h638.4c50.4 0 89.6-39.2 89.6-89.6v-649.6c0-16.8-11.2-28-28-28s-28 11.2-28 28v649.6c0 16.8-16.8 33.6-33.6 33.6h-638.4c-16.8 0-33.6-16.8-33.6-33.6v-716.8c0-16.8 16.8-33.6 33.6-33.6h560c16.8 0 28-11.2 28-28s-11.2-28-28-28v0zM764 535.2h-504c-16.8 0-28 11.2-28 28v112c0 16.8 11.2 28 28 28h504c16.8 0 28-11.2 28-28v-112c0-16.8-11.2-28-28-28v0zM288 591.2h448v56h-448v-56zM355.2 372.8h-72.8c-16.8 0-28 11.2-28 28v44.8c0 16.8 11.2 28 28 28h78.4c16.8 0 28-11.2 28-28v-44.8c-5.6-16.8-16.8-28-33.6-28v0zM551.2 372.8h-78.4c-16.8 0-28 11.2-28 28v44.8c0 16.8 11.2 28 28 28h78.4c16.8 0 28-11.2 28-28v-44.8c0-16.8-11.2-28-28-28v0zM741.6 372.8h-78.4c-16.8 0-28 11.2-28 28v44.8c0 16.8 11.2 28 28 28h78.4c16.8 0 28-11.2 28-28v-44.8c0-16.8-11.2-28-28-28v0zM355.2 221.6h-72.8c-16.8 0-28 11.2-28 28v44.8c0 16.8 11.2 28 28 28h78.4c16.8 0 28-11.2 28-28v-44.8c-5.6-16.8-16.8-28-33.6-28v0zM551.2 221.6h-78.4c-16.8 0-28 11.2-28 28v44.8c0 16.8 11.2 28 28 28h78.4c16.8 0 28-11.2 28-28v-44.8c0-16.8-11.2-28-28-28v0zM741.6 221.6h-78.4c-16.8 0-28 11.2-28 28v44.8c0 16.8 11.2 28 28 28h78.4c16.8 0 28-11.2 28-28v-44.8c0-16.8-11.2-28-28-28v0zM355.2 64.8h-72.8c-16.8 0-28 11.2-28 28v44.8c0 16.8 11.2 28 28 28h78.4c16.8 0 28-11.2 28-28v-44.8c-5.6-11.2-16.8-28-33.6-28v0zM551.2 64.8h-78.4c-16.8 0-28 11.2-28 28v44.8c0 16.8 11.2 28 28 28h78.4c16.8 0 28-11.2 28-28v-44.8c0-11.2-11.2-28-28-28v0zM741.6 64.8h-78.4c-16.8 0-28 11.2-28 28v44.8c0 16.8 11.2 28 28 28h78.4c16.8 0 28-11.2 28-28v-44.8c0-11.2-11.2-28-28-28v0z" />
<glyph unicode="&#xe906;" glyph-name="comment" data-tags="comment" d="M873.876 777.142h-723.719c-43.276 0-78.477-35.173-78.477-78.379v-530.292c0-43.24 35.202-78.412 78.477-78.412h262.527l99.349-99.202 99.285 99.202h262.557c43.276 0 78.445 35.173 78.445 78.412v530.292c0 43.207-35.17 78.379-78.445 78.379v0zM872.231 664.139v-463.706c0-22.361-17.943-40.549-39.97-40.549h-253.734l-66.475-67.449-66.534 67.449h-253.674c-22.087 0-40.030 18.189-40.030 40.549v463.706c0 22.361 17.943 40.549 40.030 40.549h640.416c22.027 0 39.97-18.189 39.97-40.549v0zM625.838 447.341c0-28.747 23.399-52.178 52.147-52.178 28.779 0 52.178 23.431 52.178 52.178s-23.399 52.147-52.178 52.147c-28.747 0-52.147-23.399-52.147-52.147zM459.838 447.341c0-28.747 23.431-52.178 52.178-52.178s52.147 23.431 52.147 52.178c0 28.747-23.399 52.147-52.147 52.147s-52.178-23.399-52.178-52.147zM293.868 447.341c0-28.747 23.399-52.178 52.147-52.178s52.147 23.431 52.147 52.178c0 28.747-23.399 52.147-52.147 52.147s-52.147-23.399-52.147-52.147z" />
<glyph unicode="&#xe907;" glyph-name="product" data-tags="product" d="M733.406 572.194c0 121.773-99.632 221.406-221.406 221.406s-221.406-99.632-221.406-221.406c0-22.14 5.536-44.282 11.070-66.422 105.168-5.536 199.264-66.422 254.616-149.448 105.168 22.14 177.124 110.702 177.124 215.87zM69.19 195.806c0-122.279 99.127-221.406 221.406-221.406s221.406 99.127 221.406 221.406c0 122.279-99.127 221.406-221.406 221.406s-221.406-99.127-221.406-221.406zM783.222 411.676c-44.282-66.422-110.702-121.773-188.194-138.378 5.536-22.14 11.070-49.816 11.070-71.956 0-49.816-11.070-99.632-33.21-143.914 38.746-49.816 99.632-77.492 166.054-77.492 121.773 0 221.406 99.632 221.406 221.406-5.536 99.632-77.492 188.194-177.124 210.336z" />
<glyph unicode="&#xe908;" glyph-name="order" data-tags="order" d="M242.964 47.823c-18.14 0-35.611 0.007-53.083-0.002-21.75-0.012-37.657 10.079-48.642 28.396-4.492 7.491-6.657 15.768-6.893 24.521-0.052 1.958-0.084 3.919-0.084 5.877-0.004 221.616 0.054 443.228-0.1 664.843-0.014 20.188 7.21 36.323 23.177 48.524 8.511 6.503 18.227 9.789 28.952 10.042 1.356 0.032 2.714 0.045 4.070 0.045 179.1 0.002 358.2-0.152 537.299 0.156 28.847 0.049 47.798-20.299 53.111-38.030 1.873-6.252 2.667-13.003 2.823-19.553 0.39-16.272 0.13-32.561 0.131-48.842 0-1.621 0-3.239 0-5.399 2.235 0 3.996 0.007 5.755-0.001 17.332-0.086 34.713 0.599 51.991-0.438 27.852-1.671 49.075-24.611 49.889-52.546 0.049-1.657 0.060-3.317 0.060-4.975 0.003-222.064-0.004-444.13 0.015-666.193 0.002-15.314-3.788-29.312-14.564-40.617-10.276-10.781-22.855-17.003-38.003-17.354-1.507-0.035-3.014-0.057-4.521-0.057-178.196-0.003-356.391 0.078-534.586-0.105-22.562-0.022-39.089 9.277-50.13 28.636-4.803 8.422-6.643 17.702-6.656 27.349-0.021 17.037-0.007 34.070-0.008 51.106-0.002 1.332-0.002 2.664-0.002 4.615zM296.961-8.32c1.802 0 3.271 0 4.74 0 176.99 0 353.979 0.013 530.969-0.083 4.101-0.002 5.335 1.045 5.333 5.26-0.101 220.256-0.089 440.516-0.1 660.773 0 1.601-0.167 3.203-0.254 4.761-18.212 0-35.915 0-53.929 0 0-2.436 0-4.53 0-6.624 0-182.718 0.024-365.436-0.1-548.156-0.005-6.554-0.587-13.37-2.431-19.613-7.373-24.982-28.199-40.161-54.26-40.165-141.26-0.019-282.521-0.009-423.78-0.009-2.036 0-4.074 0-6.189 0-0.001-19.011-0.001-37.325-0.001-56.142zM458.229 550.83c-55.027 0-110.054 0.006-165.081-0.007-9.045-0.002-18.095 0.117-27.131-0.174-10.95-0.351-18.973-5.854-23.544-15.605-4.475-9.545-3.472-19.092 2.395-27.92 6.408-9.641 15.906-12.479 26.978-12.472 124.075 0.077 248.148 0.048 372.223 0.049 1.356 0 2.713 0.035 4.070 0.060 23.226 0.434 32.715 25.975 23.457 42.528-5.686 10.167-14.803 13.636-26.122 13.609-62.415-0.147-124.829-0.071-187.243-0.070zM458.151 383.266c-62.249 0-124.495 0.013-186.744-0.036-3.447-0.003-6.976-0.15-10.326-0.878-19.273-4.185-27.598-26.89-15.914-42.707 6.396-8.658 14.579-12.678 25.476-12.661 101.435 0.151 202.871 0.090 304.306 0.090 23.966 0 47.93-0.139 71.893 0.044 21.985 0.168 35.090 22.153 25.050 41.789-5.433 10.625-14.639 14.402-26.094 14.391-62.549-0.063-125.096-0.031-187.646-0.031zM457.253 159.507c63.005 0 126.010 0.080 189.014-0.071 12.064-0.029 20.65 5.189 25.715 15.721 5.27 10.955 4.171 21.685-3.565 31.318-6.148 7.655-14.756 9.21-23.956 9.209-124.354-0.019-248.704-0.012-373.058-0.014-1.055 0-2.11 0-3.165-0.028-25.009-0.638-34.411-25.082-24.555-41.95 6.084-10.413 15.41-14.3 27.266-14.266 62.101 0.17 124.201 0.079 186.304 0.080zM539.335 662.544c36.009 0 72.016 0.033 108.024-0.019 11.616-0.017 19.998 5.207 24.789 15.603 4.833 10.487 4.092 20.781-2.871 30.282-5.927 8.083-14.445 10.279-23.878 10.279-36.913 0.002-73.823 0.002-110.735 0.002-34.2 0-68.399 0.033-102.6-0.016-14.213-0.019-23.93-5.936-27.768-16.672-7.195-20.134 6.159-39.405 27.466-39.446 35.858-0.068 71.714-0.019 107.572-0.013z" />
<glyph unicode="&#xe909;" glyph-name="configure" data-tags="configure" d="M909.859 460.342h-74.413c-7.294 28.691-16.534 60.276-28.177 84.583l53.226 53.318c19.873 19.906 19.749 52.369-0.276 72.366l-61.712 61.623c-20.018 19.988-52.473 20.091-72.351 0.226l-53.248-53.213c-24.801 11.822-57.202 21.264-84.568 28.261v74.371c0 28.104-22.879 50.969-51.003 50.969h-50.678c-28.123 0-51.003-22.865-51.003-50.969v-74.367c-28.632-7.298-60.189-16.555-84.604-28.247l-53.23 53.196c-19.877 19.864-52.334 19.763-72.351-0.226l-61.712-61.623c-20.025-19.996-20.146-52.46-0.269-72.366l53.241-53.321c-11.579-24.207-20.857-55.827-28.209-84.579h-74.396c-28.107 0-50.973-22.88-50.973-51.003v-50.678c0-28.123 22.867-51.003 50.973-51.003h74.396c7.353-28.75 16.632-60.372 28.208-84.577l-53.252-53.323c-9.659-9.671-14.941-22.534-14.875-36.217 0.067-13.63 5.444-26.469 15.143-36.152l61.722-61.625c20.020-19.99 52.476-20.090 72.347-0.222l53.207 53.196c24.433-11.695 56-20.952 84.635-28.25v-74.367c0-28.104 22.879-50.969 51.003-50.969h50.678c28.123 0 51.003 22.865 51.003 50.969v74.371c27.381 6.998 59.794 16.444 84.574 28.26l53.272-53.215c19.885-19.862 52.34-19.758 72.352 0.232l61.688 61.623c20.019 19.995 20.139 52.458 0.267 72.363l-53.229 53.321c11.605 24.255 20.869 55.857 28.201 84.58h74.402c28.11 0 50.978 22.879 50.978 51.003v50.678c0.001 28.124-22.872 51.004-50.987 51.004zM919.915 358.661c0-5.553-4.507-10.070-10.046-10.070h-106.495l-3.796-15.638c-5.032-20.728-18.398-75.788-34.977-102.931l-8.389-13.736 75.316-75.447c3.863-3.87 3.761-10.503-0.226-14.485l-61.689-61.625c-4.059-4.055-10.562-4.16-14.495-0.232l-75.355 75.274-13.73-8.348c-27.609-16.789-84.332-30.521-102.971-35.033l-15.651-3.788v-106.478c0-5.44-4.612-10.037-10.070-10.037h-50.679c-5.552 0-10.070 4.502-10.070 10.037v106.475l-15.648 3.789c-18.648 4.517-75.395 18.263-103.047 35.043l-13.73 8.333-75.289-75.273c-3.858-3.859-10.491-3.747-14.486 0.241l-61.723 61.625c-2.006 2.003-3.118 4.626-3.131 7.386-0.008 1.555 0.36 4.542 2.905 7.093l75.355 75.453-8.402 13.742c-16.516 27.010-29.94 82.169-34.993 102.934l-3.803 15.627h-106.472c-5.443 0-10.041 4.612-10.041 10.070v50.678c0 5.553 4.505 10.070 10.041 10.070h106.472l3.803 15.627c5.053 20.765 18.477 75.923 34.993 102.933l8.401 13.74-75.339 75.453c-3.863 3.869-3.759 10.501 0.227 14.481l61.712 61.625c4.063 4.055 10.566 4.163 14.493 0.237l75.325-75.275 13.73 8.344c27.602 16.773 84.35 30.518 102.999 35.035l15.648 3.79v106.478c0 5.44 4.611 10.037 10.070 10.037h50.678c5.553 0 10.070-4.503 10.070-10.037v-106.478l15.651-3.788c18.624-4.509 75.303-18.229 102.981-35.038l13.73-8.337 75.319 75.271c3.861 3.86 10.497 3.752 14.494-0.237l61.712-61.623c4.055-4.050 4.159-10.547 0.23-14.483l-75.316-75.447 8.389-13.736c16.661-27.278 29.937-82.225 34.935-102.91l3.783-15.66h106.542c5.451 0 10.056-4.612 10.056-10.070v-50.681zM513.978 557.479c-96.91 0-175.455-78.565-175.455-175.455s78.546-175.456 175.455-175.456 175.456 78.565 175.456 175.456-78.546 175.455-175.456 175.455zM609.102 286.903c-25.408-25.41-59.191-39.404-95.124-39.404s-69.716 13.994-95.124 39.404c-25.407 25.409-39.399 59.189-39.399 95.119s13.992 69.711 39.399 95.119c25.408 25.41 59.19 39.404 95.124 39.404s69.717-13.994 95.124-39.404c25.407-25.409 39.399-59.189 39.399-95.119s-13.993-69.71-39.399-95.119z" />
<glyph unicode="&#xe90a;" glyph-name="facebook" data-tags="facebook" horiz-adv-x="1037" d="M537.222 858.167c-262.305 0-474.167-211.862-474.167-474.167s211.862-474.167 474.167-474.167c262.305 0 474.167 211.862 474.167 474.167s-211.862 474.167-474.167 474.167zM665.852 386.522h-83.232v-297.616h-121.064v297.616h-63.054v103.409h63.054v63.054c0 83.232 35.31 131.153 131.153 131.153h83.232v-103.409h-50.443c-37.833 0-40.355-15.133-40.355-40.355v-50.443h93.32l-12.611-103.409z" />
<glyph unicode="&#xe90b;" glyph-name="TWITTER" data-tags="TWITTER" horiz-adv-x="1037" d="M517.044 858.167c-259.783 0-471.645-211.862-471.645-474.167s211.862-474.167 474.167-474.167 474.167 211.862 474.167 474.167-214.384 474.167-476.69 474.167zM754.128 505.064c0-5.044 0-10.089 0-15.133 0-161.419-121.064-345.537-345.537-345.537-68.099 0-133.675 20.177-186.64 55.488 10.089 0 20.177-2.522 27.744-2.522 58.010 0 108.453 20.177 151.33 52.966-52.966 0-98.365 35.31-113.498 83.232 7.567-2.522 15.133-2.522 22.7-2.522 10.089 0 22.7 2.522 32.788 5.044-55.488 10.089-98.365 60.532-98.365 118.542 0 0 0 0 0 2.522 15.133-10.089 35.31-15.133 55.488-15.133-32.788 22.7-52.966 58.010-52.966 100.887 0 22.7 5.044 42.877 17.655 60.532 60.532-73.143 148.808-121.064 249.695-126.108-2.522 10.089-2.522 17.655-2.522 27.744 0 68.099 55.488 121.064 121.064 121.064 35.31 0 65.576-15.133 88.276-37.833 27.744 5.044 52.966 15.133 78.187 30.266-10.089-27.744-27.744-52.966-52.966-68.099 25.222 2.522 47.921 10.089 70.621 20.177-20.177-27.744-40.355-50.443-63.054-65.576v0z" />
<glyph unicode="&#xe90c;" glyph-name="youtube" data-tags="youtube" horiz-adv-x="1037" d="M507.569 473.040c4.5 0 8.070 1.215 10.74 3.705 2.7 2.512 4.058 6.030 4.058 10.403v89.077c0 3.585-1.357 6.442-4.058 8.655-2.745 2.213-6.308 3.292-10.74 3.292-4.065 0-7.35-1.087-9.952-3.292-2.475-2.205-3.78-5.070-3.78-8.655v-89.078c0-4.507 1.222-7.972 3.592-10.402 2.363-2.573 5.723-3.705 10.14-3.705zM581.204 308.505c-4.65 0-9.165-1.125-13.747-3.488-4.41-2.377-8.633-5.872-12.645-10.327v64.777h-29.955v-201.27h29.955v11.408c3.855-4.59 8.153-7.905 12.645-10.035 4.515-2.22 9.66-3.225 15.532-3.225 8.707 0 15.503 2.722 20.070 8.378 4.718 5.67 7.020 13.665 7.020 24.142v82.402c0 12.188-2.423 21.428-7.447 27.795-4.92 6.293-12.067 9.442-21.428 9.442zM579.539 193.013c0-4.8-0.847-8.16-2.565-10.238-1.71-2.137-4.358-3.225-7.995-3.225-2.52 0-4.86 0.57-7.148 1.642-2.317 1.005-4.658 2.88-7.020 5.235v92.513c1.995 2.070 3.998 3.577 6.075 4.582 2.077 0.938 4.215 1.425 6.293 1.425 4.012 0 7.080-1.298 9.217-3.863 2.16-2.587 3.142-6.39 3.142-11.452v-76.62zM302.496 330.217h34.538v-172.028h33.382v172.028h34.605v29.242h-102.525v-29.242zM472.971 193.943c-2.775-3.225-5.843-5.865-9.225-8.010-3.263-2.070-6.053-3.075-8.205-3.075-2.798 0-4.785 0.72-6.067 2.355-1.215 1.575-1.86 4.080-1.86 7.582v113.932h-29.588v-124.178c0-8.887 1.71-15.39 5.145-19.852 3.495-4.508 8.625-6.63 15.502-6.63 5.587 0 11.272 1.477 17.227 4.71 5.94 3.158 11.588 7.725 17.070 13.748v-16.335h29.61v148.538h-29.61v-112.785zM512.429 864c-265.080 0-480.023-214.92-480.023-480.023 0-265.11 214.942-479.977 480.023-479.977 265.125 0 479.977 214.868 479.977 479.977 0 265.103-214.852 480.023-479.977 480.023zM583.626 614.168h33.577v-126.195c0-3.885 0.78-6.69 2.153-8.422 1.373-1.815 3.765-2.678 6.855-2.678 2.438 0 5.617 1.163 9.42 3.458 3.958 2.524 7.359 5.462 10.287 8.824l0.048 0.056v124.958h33.645v-164.602h-33.645v18.232c-6.127-6.69-12.645-11.873-19.327-15.345-6.712-3.457-13.17-5.332-19.538-5.332-7.755 0-13.612 2.52-17.573 7.5-3.892 4.823-5.895 12.18-5.895 21.968v137.58zM458.811 576.555c0 12.75 4.538 22.912 13.53 30.412 9.030 7.553 21.255 11.31 36.54 11.31 13.92 0 25.313-3.952 34.237-11.88 8.79-7.935 13.252-18.315 13.252-30.78v-85.050c0-14.107-4.32-25.065-13.027-33.135-8.73-7.995-20.768-12.037-36.053-12.037-14.685 0-26.438 4.178-35.303 12.48-8.79 8.273-13.178 19.373-13.178 33.36v85.32zM367.214 672.683l24.563-89.205h2.4l23.392 89.205h38.483l-44.1-130.59v-92.52h-37.837v88.44l-45.023 134.67h38.123zM807.584 203.145c0-59.505-48.278-107.872-107.82-107.872h-374.715c-59.535 0-107.805 48.367-107.805 107.872v86.7c0 59.49 48.278 107.835 107.805 107.835h374.723c59.542 0 107.82-48.353 107.82-107.835v-86.7zM670.596 310.38c-13.283 0-24.015-4.005-32.445-12.112-8.347-8.070-12.57-18.675-12.57-31.478v-66.697c0-14.317 3.862-25.56 11.422-33.638 7.658-8.257 18.083-12.255 31.388-12.255 14.745 0 25.875 3.795 33.232 11.452 7.5 7.732 11.145 19.208 11.145 34.44v7.612h-30.428v-6.742c0-8.745-1.095-14.385-2.947-16.965-1.995-2.595-5.422-3.87-10.372-3.87-4.702 0-8.070 1.5-10.005 4.5-1.92 3.075-2.947 8.55-2.947 16.335v27.923h56.692v37.89c0 14.092-3.645 24.855-10.92 32.362-7.207 7.515-17.655 11.242-31.245 11.242zM682.341 252.015h-26.265v14.955c0 6.24 1.027 10.74 3.097 13.327 2.048 2.79 5.43 4.163 10.147 4.163 4.515 0 7.868-1.373 9.87-4.163 2.055-2.595 3.15-7.087 3.15-13.327v-14.955z" />
<glyph unicode="&#xe90d;" glyph-name="lang" data-tags="lang" d="M512 776c52.938 0 104.3-10.325 152.6-30.8 46.638-19.775 88.638-48.038 124.6-84 36.050-36.050 64.312-77.962 84-124.6 20.475-48.3 30.8-99.662 30.8-152.6s-10.325-104.3-30.8-152.6c-19.775-46.638-48.038-88.638-84-124.6-36.050-36.050-77.962-64.312-124.6-84-48.3-20.475-99.662-30.8-152.6-30.8s-104.3 10.325-152.6 30.8c-46.638 19.775-88.638 48.038-124.6 84-36.050 36.050-64.312 77.962-84 124.6-20.475 48.3-30.8 99.662-30.8 152.6s10.325 104.3 30.8 152.6c19.775 46.638 48.038 88.638 84 124.6s77.962 64.312 124.6 84c48.3 20.475 99.662 30.8 152.6 30.8zM512 832c-247.45 0-448-200.55-448-448s200.55-448 448-448 448 200.55 448 448-200.55 448-448 448zM932 412h-840v-56h840v56zM512 776c16.625 0 33.775-7.35 51.012-21.962 20.562-17.412 40.338-44.45 57.312-78.312 18.462-36.838 32.988-80.238 43.312-128.975 10.85-51.362 16.362-106.138 16.362-162.75s-5.512-111.388-16.362-162.838c-10.325-48.65-24.85-92.050-43.312-128.975-16.888-33.862-36.75-60.9-57.312-78.312-17.238-14.525-34.388-21.875-51.012-21.875s-33.775 7.35-51.012 21.962c-20.562 17.412-40.338 44.45-57.312 78.312-18.462 36.838-32.988 80.238-43.312 128.975-10.85 51.362-16.362 106.138-16.362 162.75s5.512 111.388 16.362 162.838c10.325 48.65 24.85 92.050 43.312 128.975 16.888 33.862 36.75 60.9 57.312 78.312 17.238 14.525 34.388 21.875 51.012 21.875zM512 832c-123.725 0-224-200.55-224-448s100.275-448 224-448 224 200.55 224 448-100.275 448-224 448zM875.825 645.45c-10.238 14.175-21.175 27.738-32.988 40.6-69.562-46.812-191.8-77.875-330.925-77.875s-261.362 31.062-330.925 77.875c-11.725-12.862-22.75-26.425-32.988-40.6 81.288-56.525 214.025-93.275 363.825-93.275s282.712 36.75 364 93.275zM147.912 122.9c10.15-14.175 21.175-27.738 32.9-40.6 69.562 46.9 191.888 78.050 331.188 78.050s261.625-31.15 331.188-78.050c11.725 12.862 22.75 26.425 32.9 40.6-81.288 56.612-214.112 93.45-364.088 93.45s-282.8-36.838-364.088-93.45z" />
<glyph unicode="&#xe90e;" glyph-name="weixin" data-tags="weixin" horiz-adv-x="1037" d="M597.621 384c-13.187 0-26.374-13.187-26.374-26.374s13.187-26.374 26.374-26.374c21.098 0 34.285 13.187 34.285 26.374s-13.187 26.374-34.285 26.374zM750.588 384c-13.187 0-26.374-13.187-26.374-26.374s13.187-26.374 26.374-26.374c21.098 0 34.285 13.187 34.285 26.374s-15.824 26.374-34.285 26.374zM318.061 584.44c-21.098 0-42.198-13.187-42.198-34.285s21.098-34.285 42.198-34.285 34.285 13.187 34.285 34.285c0 18.461-13.187 34.285-34.285 34.285zM510.588 515.868c21.098 0 34.285 13.187 34.285 34.285s-13.187 34.285-34.285 34.285-42.198-13.187-42.198-34.285 21.098-34.285 42.198-34.285zM518.5 864c-263.737 0-480-213.627-480-480s216.264-480 480-480c266.374 0 480 216.264 480 480s-213.627 480-480 480zM407.731 233.67c-34.285 0-60.66 7.913-94.945 13.187l-97.582-47.472 26.374 81.758c-68.572 47.472-110.769 110.769-110.769 184.616 0 129.231 123.956 232.088 274.285 232.088 134.506 0 253.187-81.758 276.923-192.528-7.913 0-18.461 2.637-26.374 2.637-129.231 0-232.088-97.582-232.088-216.264 0-21.098 2.637-39.561 7.913-58.023-7.913 0-15.824 0-23.737 0zM811.248 136.087l21.098-68.572-76.484 42.198c-26.374-7.913-55.386-13.187-81.758-13.187-129.231 0-232.088 89.671-232.088 197.803 0 110.769 102.858 197.803 232.088 197.803 123.956 0 232.088-89.671 232.088-197.803 0-60.66-39.561-116.044-94.945-158.242z" />
<glyph unicode="&#xe90f;" glyph-name="weibo" data-tags="weibo" horiz-adv-x="1037" d="M374.245 299.744c-22.979-2.553-40.853-22.979-40.853-43.404s20.425-33.191 43.404-30.638c22.979 2.553 43.404 20.425 43.404 40.853s-20.425 38.299-45.957 33.191zM435.522 317.617c-7.659-5.108-10.213-17.873-5.108-25.533s15.32-7.659 22.979-2.553c7.659 5.108 10.213 17.873 7.659 25.533-7.659 7.659-17.873 10.213-25.533 2.553zM517.223 864c-262.979 0-480-214.468-480-480s214.468-480 480-480 480 214.468 480 480c2.553 265.532-214.468 480-480 480zM780.203 264c-53.618-112.341-227.234-165.957-357.446-155.745-122.554 10.213-280.853 51.064-296.169 199.148 0 0-7.659 66.383 56.17 155.745 0 0 94.468 130.213 204.255 168.511s122.554-25.533 122.554-63.83c-5.108-30.638-17.873-51.064 25.533-38.299 0 0 107.234 51.064 153.191 5.108 35.744-35.744 5.108-84.256 5.108-84.256s-15.32-15.32 15.32-22.979c28.086-7.659 125.108-51.064 71.49-163.404zM675.522 572.935c-12.766 0-20.425 10.213-20.425 20.425 0 12.766 10.213 20.425 20.425 20.425 0 0 132.767 25.533 117.447-117.447v-2.553c-2.553-10.213-10.213-17.873-20.425-17.873-12.766 0-20.425 10.213-20.425 20.425-2.553 2.553 17.873 97.021-76.598 76.598zM897.649 473.363c-2.553-51.064-15.32-33.191-30.638-33.191-17.873 0-30.638 7.659-30.638 25.533 0 15.32 5.108 28.086 5.108 28.086 2.553 5.108 15.32 43.404-10.213 102.128-45.957 79.148-140.425 79.148-153.191 74.043-10.213-5.108-28.086-7.659-28.086-7.659-17.873 0-30.638 12.766-30.638 30.638 0 15.32 10.213 25.533 22.979 30.638v0h2.553c12.766 2.553 61.277 20.425 104.681 10.213 86.809-20.425 199.148-107.234 148.086-260.425v0zM432.968 452.936c-127.659-5.108-232.341-74.043-232.341-160.853s104.681-150.638 232.341-142.978c127.659 5.108 232.341 86.809 232.341 171.064s-102.128 137.873-232.341 132.767zM522.331 235.914c-38.299-51.064-117.447-76.598-191.49-35.744-35.744 20.425-35.744 58.723-35.744 58.723s-15.32 120 114.893 135.32c127.659 17.873 150.638-107.234 112.341-158.298z" />
<glyph unicode="&#xe910;" glyph-name="qq" data-tags="qq" horiz-adv-x="1037" d="M515.941 864c-263.68 0-478.72-215.040-478.72-478.72s215.040-481.28 481.28-481.28 481.28 215.040 481.28 481.28-217.6 478.72-483.841 478.72zM779.62 234.239c-12.801-12.801-33.28 0-53.761 28.161-7.681-23.041-20.48-46.080-33.28-66.56 28.161-10.24 48.64-25.6 48.64-43.521 0-30.72-56.32-56.32-125.44-56.32-40.96 0-76.8 7.681-99.841 23.041-23.041-12.801-58.881-23.041-99.841-23.041-69.121 0-125.44 25.6-125.44 56.32 0 17.919 17.919 33.28 48.64 43.521-12.801 20.48-25.6 40.96-33.28 66.56-20.48-28.161-40.96-40.96-53.761-28.161-17.919 15.36-10.24 71.68 15.36 125.44 5.12 12.801 12.801 23.041 17.919 33.28 2.559 156.16 104.961 279.040 230.4 279.040v0c125.44 0 227.841-125.44 230.4-279.040 7.681-10.24 12.801-20.48 17.919-33.28 25.6-53.761 33.28-110.080 15.36-125.44v0z" />
<glyph unicode="&#xe911;" glyph-name="doublearrowdown" data-tags="double arrow down" d="M488.435 663.242l-281.872-286.953c-11.864-12.135-11.864-31.759 0-43.899 5.487-5.62 13.138-9.104 21.604-9.104s16.118 3.486 21.597 9.098l262.206 267.036 262.304-267.031c11.92-12.139 31.191-12.139 43.107 0 11.92 12.139 11.92 31.763 0 43.899l-281.769 286.955c-6.507 6.678-15.146 9.357-23.642 8.802-8.437 0.555-17.032-2.123-23.534-8.802zM511.969 447.19c-8.44 0.61-17.032-2.119-23.534-8.698l-281.872-286.958c-11.864-12.135-11.864-31.759 0-43.998 11.92-12.136 31.287-12.035 43.206 0l262.199 267.134 262.304-267.134c11.92-12.035 31.191-12.136 43.107 0 11.92 12.241 11.92 31.864 0 43.998l-281.769 286.957c-6.507 6.579-15.146 9.308-23.642 8.698z" />
<glyph unicode="&#xe912;" glyph-name="shop-cart" data-tags="shop-cart" d="M339.638 234.12h472.124c22.482 0 44.964 14.988 52.458 37.47l89.928 389.688c7.494 14.988 0 29.976-7.494 44.964s-29.976 22.482-44.964 22.482h-644.486l-22.482 97.422h-142.386c-14.988 0-29.976-7.494-29.976-22.482s14.988-29.976 29.976-29.976h97.422l44.964-194.844c0 0 0 0 0 0 0-7.494 0-7.494 0-14.988l67.446-277.278c-29.976-14.988-59.952-52.458-59.952-97.422 0-29.976 14.988-52.458 29.976-67.446-14.988-14.988-29.976-44.964-29.976-67.446 0-52.458 44.964-97.422 97.422-97.422s97.422 37.47 97.422 89.928c0 14.988-7.494 29.976-7.494 44.964h322.242c-7.494-14.988-7.494-29.976-7.494-44.964 0-52.458 44.964-97.422 97.422-97.422s97.422 44.964 97.422 97.422c0 52.458-37.47 89.928-89.928 97.422 0 0-7.494 0-7.494 0h-502.1c0 0 0 0 0 0-22.482 0-44.964 22.482-44.964 44.964 7.494 22.482 22.482 44.964 44.964 44.964zM834.242 91.734c22.482 0 44.964-22.482 44.964-44.964s-14.988-37.47-44.964-37.47c-22.482 0-44.964 22.482-44.964 44.964s22.482 37.47 44.964 37.47zM339.638 9.3c-22.482 0-44.964 22.482-44.964 44.964s22.482 44.964 44.964 44.964c0 0 0 0 0 0s0 0 0 0c22.482 0 44.964-22.482 44.964-44.964 0-29.976-22.482-44.964-44.964-44.964zM811.76 286.578h-449.642l-59.952 262.29h569.546l-59.952-262.29zM901.688 676.266l-14.988-74.94h-599.522l-14.988 67.446 629.498 7.494z" />
<glyph unicode="&#xe913;" glyph-name="lock" data-tags="lock" d="M807.109-63.053h-590.218c-50.879 0-92.488 38.876-92.488 87.157v370.174c0 48.282 41.070 87.112 92.488 87.112h22.797v86.397c0 149.728 122.048 263.265 272.312 263.265 150.13 0 272.267-113.538 272.267-263.265v-86.709h22.842c50.924 0 92.488-38.966 92.488-87.248v-370.174c0-47.834-41.564-86.709-92.488-86.709zM473.034 211.856v-97.011c0-20.020 17.512-36.681 38.966-36.681 21.41 0 38.787 16.66 38.787 36.681v97.011c23.335 12.497 38.966 36.233 38.966 63.464 0 40.668-34.891 73.812-77.752 73.812-42.817 0-77.796-33.144-77.796-73.812 0-27.232 15.631-50.924 38.831-63.464zM706.516 570.43c0 101.534-87.248 184.214-194.516 184.214-107.313 0-194.516-82.724-194.516-184.214v-88.994h389.029v88.994z" />
<glyph unicode="&#xe914;" glyph-name="facebook2" data-tags="facebook" d="M581.497 610.229c0 21.546 2.376 37.421 8.315 46.493 8.316 13.608 24.947 20.412 51.083 20.412h87.91v154.221h-147.309c-29.699 0-58.211-3.401-91.474-15.876-67.715-26.082-102.166-87.317-102.166-182.571v-92.987h-95.039v-155.355h95.039v-447.923h193.64v447.923h131.865l17.82 155.355h-149.685v70.307z" />
<glyph unicode="&#xe915;" glyph-name="twtter" data-tags="twtter" d="M945.261 651.387c-28.864-13.89-62.38-23.83-97.656-28.026l-1.514-0.148c34.492 23.256 60.584 56.654 74.209 95.884l0.404 1.337c-32.008-19.838-69.768-33.764-110.211-39.232l-1.475-0.163c-32.626 34.003-78.446 55.133-129.199 55.133-98.792 0-178.887-80.056-178.95-178.833v-0.006c-0.003-0.358-0.005-0.78-0.005-1.203 0-13.744 1.714-27.087 4.94-39.828l-0.239 1.118c-149.125 5.598-280.667 76.35-367.696 184.451l-0.743 0.954c-14.777-25.422-23.5-55.948-23.5-88.511 0-60.955 30.567-114.773 77.207-146.96l0.599-0.391c-3.595-0.402-7.764-0.632-11.986-0.632-24.726 0-47.615 7.863-66.307 21.222l0.347-0.236c-1.385-62.546 28.174-145.047 137.628-175.168-14.216-5.122-30.622-8.083-47.717-8.083-9.512 0-18.81 0.917-27.809 2.667l0.913-0.149c5.564-52.357 79.238-121.406 159.862-121.406-28.715-32.846-136.689-93.089-257.625-74.096 79.519-49.502 175.984-78.957 279.311-79.238h0.077c1.295-0.013 2.828-0.019 4.363-0.019 274.359 0 496.772 222.413 496.772 496.772 0 8.958-0.237 17.862-0.706 26.705l0.052-1.236v6.034c34.977 24.36 63.922 54.78 85.908 89.994l0.75 1.289z" />
<glyph unicode="&#xe916;" glyph-name="home" data-tags="home" d="M876.19 333.63h-49.214c-21.745 0-39.372-17.684-39.372-39.5v-266.628c0-16.362-13.221-29.624-29.529-29.624h-157.487c-16.308 0-29.529 13.261-29.529 29.624v187.628h-118.114v-187.628c0-16.362-13.22-29.624-29.531-29.624h-157.487c-16.308 0-29.527 13.261-29.527 29.624v266.629c0 21.815-17.627 39.5-39.372 39.5h-49.214c-16.309 0-29.531 13.265-29.531 29.626 0 4.203 0.922 8.167 2.494 11.789 1.444 3.603 3.61 6.984 6.522 9.904l354.122 374.765c8.284 8.303 20.204 10.407 30.581 6.819 10.377 3.589 22.296 1.484 30.581-6.819l354.12-374.766c2.913-2.92 5.077-6.301 6.523-9.904 1.574-3.621 2.492-7.586 2.492-11.789 0-16.36-13.22-29.626-29.529-29.626z" />
<glyph unicode="&#xe917;" glyph-name="login-out" data-tags="login-out" d="M952.3 431.8l-158.4 158.4c-10.9 10.9-28.7 10.9-39.6 0s-10.9-28.7 0-39.6l110.6-110.6h-464.4v-56h474l-120.2-120.2c-10.9-10.9-10.9-28.7 0-39.6s28.7-10.9 39.6 0l158.4 158.4c6.7 6.7 8.8 15.9 7.3 24.6 1.5 8.7-0.6 17.9-7.3 24.6zM624 76c0-15.5-12.5-28-28-28h-448c-15.5 0-28 12.5-28 28v616c0 15.5 12.5 28 28 28h448c15.5 0 28-12.5 28-28v-196h56v224c0 30.9-25.1 56-56 56h-504c-30.9 0-56-25.1-56-56v-672c0-30.9 25.1-56 56-56h504c30.9 0 56 25.1 56 56v280h-56v-252z" />
<glyph unicode="&#xe918;" glyph-name="myorder" data-tags="myorder" d="M544-64c-17.707 0-32 14.293-32 32v192c0 52.907 43.093 96 96 96h181.333c17.707 0 32-14.293 32-32s-14.293-32-32-32h-181.333c-17.6 0-32-14.4-32-32v-192c0-17.707-14.293-32-32-32zM320 544h384v-64h-384zM320 384h384v-64h-384zM352 0h-64c-17.6 0-32 14.4-32 32v576c0 17.6 14.4 32 32 32h32v64h-32c-52.907 0-96-43.093-96-96v-576c0-52.907 43.093-96 96-96h64c17.707 0 32 14.293 32 32s-14.293 32-32 32zM736 704h-32v-64h32c17.6 0 32-14.4 32-32v-357.547c0-8.533-3.307-16.533-9.387-22.613l-237.227-237.227c-12.48-12.48-12.48-32.747 0-45.227 6.187-6.293 14.4-9.387 22.613-9.387s16.427 3.093 22.613 9.387l237.227 237.333c18.133 18.133 28.16 42.24 28.16 67.84v357.44c0 52.907-43.093 96-96 96zM352 704h320v-96h-320zM418.453 704c14.507 37.44 50.88 64 93.333 64s78.827-26.56 93.333-64h66.773c-16.427 73.28-81.92 128-160.107 128s-143.68-54.72-160.107-128h66.773z" />
<glyph unicode="&#xe919;" glyph-name="ultracreation" data-tags="ultracreation" d="M522.091 542.898l95.842-116.020 90.798 116.020v-403.547c-80.709-267.35-499.389-242.128-544.791-5.044v413.635l181.596 5.044v-378.325c22.196-104.922 166.463-95.842 176.552-5.044v373.281zM617.933 467.233l-46.912 60.028c33.797 22.196 64.568 20.177 92.815-0.504l-45.903-59.523zM491.321 630.669l-49.939 63.559c116.020 80.709 247.172 80.709 353.103 0l-50.443-65.576c-85.754 65.576-178.065 54.983-252.721 2.017zM373.788 781.999l49.435-64.063c114.001 87.267 265.331 92.311 386.395 1.513l50.443 65.576c-146.286 105.931-332.926 110.975-486.273-3.027zM506.958 613.519l49.435-66.081c41.868 27.239 82.728 27.239 122.073 0.504l51.956 62.045c-62.045 46.408-142.25 56.496-223.464 3.531z" />
<glyph unicode="&#xe91a;" glyph-name="arrow-up-thin" data-tags="arrow-up-thin" d="M531.119 576.808v0c10.678-10.681 10.747-27.922 0.157-38.518l-348.129-348.124c-10.59-10.595-27.837-10.525-38.514 0.156v0c-10.681 10.678-10.75 27.919-0.156 38.514l348.124 348.125c10.595 10.595 27.837 10.525 38.518-0.152v0zM879.368 191.196v0c-10.677-10.681-27.919-10.746-38.514-0.156l-348.126 348.124c-10.595 10.595-10.525 27.837 0.152 38.518v0c10.681 10.678 27.923 10.747 38.518 0.152l348.125-348.125c10.595-10.59 10.525-27.836-0.156-38.514v0z" />
<glyph unicode="&#xe91b;" glyph-name="packages" data-tags="packages" d="M764.91 573.498h-93.773v11.364c0 51.716-42.061 93.794-93.775 93.794h-130.742c-51.694 0-93.753-42.078-93.753-93.794v-11.364h-93.775c-37.687 0-68.212-30.563-68.212-68.155v-323.953c0-35.16 26.741-63.802 60.894-67.527-0.665-1.882-1.216-3.877-1.216-6.045 0-10.167 8.23-18.473 18.436-18.473h32.727c10.188 0 18.493 8.306 18.493 18.473 0 1.921-0.57 3.649-1.101 5.323h385.774c-0.531-1.674-1.101-3.401-1.101-5.323 0-10.167 8.343-18.473 18.473-18.473h32.747c10.13 0 18.416 8.306 18.416 18.473 0 2.168-0.531 4.163-1.197 6.045 34.154 3.725 60.894 32.367 60.894 67.527v323.953c0.001 37.592-30.521 68.155-68.211 68.155zM709.168 552.229h31.949v-407.862h-31.949v407.862zM404.010 584.861c0 23.513 19.139 42.611 42.609 42.611h130.742c23.49 0 42.629-19.1 42.629-42.611v-11.364h-215.98v11.364zM282.868 552.229h32.005v-407.862h-32.005v407.862z" />
<glyph unicode="&#xf100;" glyph-name="ion-ios-add-circle-outline" data-tags="ion-ios-add-circle-outline" d="M512 800c230 0 416-186 416-416s-186-416-416-416-416 186-416 416 186 416 416 416zM512 2c210 0 382 172 382 382s-172 382-382 382-382-172-382-382 172-382 382-382zM528 640v-240h240v-32h-240v-240h-32v240h-240v32h240v240h32z" />
<glyph unicode="&#xf102;" glyph-name="ion-ios-add" data-tags="ion-ios-add" horiz-adv-x="512" d="M512 368h-240v-240h-32v240h-240v32h240v240h32v-240h240v-32z" />
<glyph unicode="&#xf149;" glyph-name="ion-ios-checkmark-circle-outline" data-tags="ion-ios-checkmark-circle-outline" d="M680 542l36-36-268-270c-4-4-12-8-18-8s-14 4-18 8l-112 112 36 36 94-94zM512 800c230 0 416-186 416-416s-186-416-416-416-416 186-416 416 186 416 416 416zM512 2c210 0 382 172 382 382s-172 382-382 382-382-172-382-382 172-382 382-382z" />
<glyph unicode="&#xf14e;" glyph-name="ion-ios-close-circle" data-tags="ion-ios-close-circle" d="M710 678c162-162 162-426 0-588s-426-162-588 0-162 426 0 588 426 162 588 0zM608 216l-168 168 168 168-24 24-168-168-168 168-24-24 168-168-168-168 24-24 168 168 168-168z" />
<glyph unicode="&#xf14f;" glyph-name="ion-ios-close-circle2" data-tags="ion-ios-close-circle" d="M806 678c162-162 162-426 0-588s-426-162-588 0-162 426 0 588 426 162 588 0zM704 216l-168 168 168 168-24 24-168-168-168 168-24-24 168-168-168-168 24-24 168 168 168-168z" />
<glyph unicode="&#xf1e4;" glyph-name="ion-ios-pin-outline" data-tags="ion-ios-pin-outline" horiz-adv-x="576" d="M288 768c-142 0-256-106-256-236 0-80 48-196 140-342 44-72 88-134 116-170 28 36 74 98 118 170 90 146 138 262 138 342 0 130-114 236-256 236zM288 800v0c160 0 288-120 288-268 0-208-288-564-288-564s-288 356-288 564c0 148 128 268 288 268zM288 640c70 0 128-58 128-128s-58-128-128-128-128 58-128 128 58 128 128 128zM288 418c52 0 94 42 94 94s-42 94-94 94-94-42-94-94 42-94 94-94z" />
<glyph unicode="&#xf1f6;" glyph-name="ion-ios-radio-button-off" data-tags="ion-ios-radio-button-off" d="M512 800c230 0 416-186 416-416s-186-416-416-416-416 186-416 416 186 416 416 416zM512 2c210 0 382 172 382 382s-172 382-382 382-382-172-382-382 172-382 382-382z" />
<glyph unicode="&#xf1fc;" glyph-name="ion-ios-remove" data-tags="ion-ios-remove" horiz-adv-x="512" d="M512 366h-512v34h512v-34z" />
<glyph unicode="&#xf2c0;" glyph-name="edit-thin" data-tags="edit-thin" horiz-adv-x="596" d="M455.656 624.501c-5.719 5.719-13.215 8.579-20.711 8.579s-14.992-2.861-20.711-8.579l-310.675-310.673 124.271-124.271 310.673 310.675c11.44 11.438 11.44 29.984 0 41.423l-82.846 82.847zM227.829 230.981l-82.849 82.847 289.964 289.962 82.847-82.847-289.962-289.962zM590.281 572.722l-103.557 103.559c-5.719 5.719-14.992 5.719-20.711 0s-5.719-14.994 0-20.712l103.558-103.558c5.719-5.719 14.992-5.719 20.711 0s5.718 14.992-0.001 20.711zM0.001 86l207.116 82.847-124.271 124.271-82.847-207.116zM154.996 179.544l-102.415-40.966 40.966 102.417 61.449-61.451z" />
<glyph unicode="&#xf2c1;" glyph-name="close" data-tags="close" horiz-adv-x="596" d="M596 622l-238-238 238-238-60-60-238 238-238-238-60 60 238 238-238 238 60 60 238-238 238 238z" />
<glyph unicode="&#xf3d8;" glyph-name="arrow-up" data-tags="arrow-up" horiz-adv-x="640" d="M576 192l-256 254-256-254-64 64 320 320 320-320z" />
<glyph unicode="&#xf3ff;" glyph-name="ion-ios-checkmark" data-tags="ion-ios-checkmark" horiz-adv-x="414" d="M148 236c-4-4-12-8-18-8s-14 4-18 8l-112 112 36 36 94-94 250 252 34-36z" />
<glyph unicode="&#xf4a5;" glyph-name="ion-ios-search" data-tags="ion-ios-search" horiz-adv-x="768" d="M560 300l-8-14 216-218-68-68-216 218-14-10c-48-30-106-50-166-50-168 0-304 138-304 306s136 304 304 304 304-136 304-304c0-60-18-116-48-164zM474 634c-46 46-106 70-170 70s-124-24-170-70-70-106-70-170 24-124 70-170 106-70 170-70 124 24 170 70 72 106 72 170-26 124-72 170z" />
</font>
</defs>
</svg>
